<?xml version="1.0" encoding="iso-8859-1"?>
<!-- Uploaded to: SVG Repo, www.svgrepo.com, Generator: SVG Repo Mixer Tools -->
<svg height="800px" width="800px" version="1.1" id="Layer_1" xmlns="http://www.w3.org/2000/svg" xmlns:xlink="http://www.w3.org/1999/xlink" 
	 viewBox="0 0 512 512" xml:space="preserve">
<polygon style="fill:#F4B2B0;" points="182.599,342.881 182.599,375.763 329.401,375.763 329.401,342.881 393.079,342.881 
	393.079,145.154 118.922,145.154 118.922,342.881 "/>
<path style="fill:#B3404A;" d="M498.427,329.308h-91.774V145.154c0-7.496-6.078-13.573-13.573-13.573H118.922
	c-7.496,0-13.573,6.077-13.573,13.573v184.154h-35.61V95.971h372.524V287.1c0,7.496,6.078,13.573,13.573,13.573
	s13.573-6.077,13.573-13.573V82.397c0-7.496-6.078-13.573-13.573-13.573H56.165c-7.496,0-13.573,6.077-13.573,13.573V329.31H13.573
	C6.077,329.31,0,335.386,0,342.883v51.274c0,27.029,21.99,49.019,49.019,49.019c7.496,0,13.573-6.077,13.573-13.573
	s-6.077-13.573-13.573-13.573c-12.061,0-21.873-9.812-21.873-21.873v-37.701h91.776h50.104v19.309
	c0,7.496,6.077,13.573,13.573,13.573l0,0h146.802h0.001c7.495,0,13.573-6.077,13.573-13.573v-19.309h50.104h91.774v37.701
	c0,12.061-9.812,21.873-21.872,21.873H118.921c-7.496,0-13.573,6.077-13.573,13.573s6.077,13.573,13.573,13.573h344.061
	c27.028,0,49.018-21.99,49.018-49.019v-51.274C512,335.385,505.923,329.308,498.427,329.308z M329.403,329.308L329.403,329.308
	c-7.496,0-13.574,6.077-13.574,13.573v19.309H196.172v-19.309c0-7.496-6.077-13.573-13.573-13.573l0,0h-50.104V158.727h247.011
	v170.581H329.403z"/>
</svg>